<?xml version="1.0" encoding="utf-8"?>
<!-- Generator: Adobe Illustrator 23.1.1, SVG Export Plug-In . SVG Version: 6.00 Build 0)  -->
<svg version="1.1" id="Calque_1" xmlns="http://www.w3.org/2000/svg" xmlns:xlink="http://www.w3.org/1999/xlink" x="0px" y="0px"
	 viewBox="0 0 595.3 841.9" style="enable-background:new 0 0 595.3 841.9;" xml:space="preserve">
<style type="text/css">
	.st0{fill:#9677A0;}
</style>
<path class="st0" d="M339.4,467.3h-62.5l-19.9-24.7l18.3-75.1h65.9l18.4,75.1L339.4,467.3z M281.4,457.7h53.4l14.2-17.4l-15.5-63.2
	h-50.8l-15.4,63.2L281.4,457.7z"/>
<path class="st0" d="M149.1,466l-3.5-17.3c0-0.2-0.1-0.3-0.2-0.4c-0.1-0.1-0.3-0.1-0.5-0.1h-25.3c-0.2,0-0.3,0-0.5,0.1
	c-0.1,0.1-0.2,0.2-0.2,0.4l-3.5,17.3c-0.1,0.8-0.6,1.3-1.5,1.3h-7.1c-0.5,0-0.8-0.1-1-0.4c-0.2-0.3-0.3-0.6-0.2-1.1l20.9-94.9
	c0.2-0.8,0.7-1.3,1.5-1.3h8.4c0.9,0,1.4,0.4,1.5,1.3l21.2,94.9v0.3c0,0.8-0.4,1.3-1.3,1.3h-7.3C149.8,467.2,149.3,466.8,149.1,466z
	 M121.2,440h22c0.3,0,0.4-0.2,0.4-0.6l-11.2-54.8c-0.1-0.3-0.2-0.4-0.3-0.4c-0.1,0-0.2,0.1-0.3,0.4l-11.2,54.8
	C120.8,439.8,120.9,440,121.2,440z"/>
<path class="st0" d="M198.4,465.8v-94.9c0-0.9,0.5-1.4,1.4-1.4h7.1c0.9,0,1.4,0.5,1.4,1.4V458c0,0.4,0.2,0.6,0.6,0.6h32
	c0.9,0,1.4,0.5,1.4,1.4v5.9c0,0.9-0.5,1.4-1.4,1.4h-41C198.9,467.2,198.4,466.8,198.4,465.8z"/>
<path class="st0" d="M391.2,465.8v-94.9c0-0.9,0.5-1.4,1.4-1.4h7.1c0.9,0,1.4,0.5,1.4,1.4v94.9c0,0.9-0.5,1.4-1.4,1.4h-7.1
	C391.7,467.2,391.2,466.8,391.2,465.8z"/>
<path class="st0" d="M450,461.5c-4.3-4.6-6.4-10.5-6.4-17.9v-3.2c0-0.9,0.5-1.4,1.4-1.4h6.8c0.9,0,1.4,0.5,1.4,1.4v2.8
	c0,4.9,1.3,8.9,3.8,11.9c2.5,3,5.8,4.5,9.8,4.5c3.9,0,7.2-1.4,9.8-4.3c2.6-2.9,3.9-6.7,3.9-11.4c0-3.2-0.6-5.9-1.9-8.2
	c-1.3-2.3-2.9-4.3-4.9-6c-2-1.7-5.3-4.3-10-7.9c-4.7-3.4-8.3-6.4-11-8.9c-2.7-2.5-4.9-5.4-6.6-8.9c-1.7-3.4-2.6-7.5-2.6-12.1
	c0-7.3,2.1-13,6.3-17.2c4.2-4.2,9.6-6.3,16.3-6.3c7.1,0,12.7,2.3,17,6.9c4.2,4.6,6.3,10.7,6.3,18.3v3.5c0,0.9-0.5,1.4-1.4,1.4h-7
	c-0.9,0-1.4-0.5-1.4-1.4v-3.6c0-4.9-1.2-8.9-3.7-11.9c-2.5-3-5.7-4.5-9.8-4.5c-3.7,0-6.8,1.3-9.2,4c-2.4,2.7-3.6,6.4-3.6,11.2
	c0,2.9,0.5,5.4,1.6,7.6c1.1,2.2,2.7,4.3,4.8,6.2c2.1,2,5.3,4.5,9.5,7.7c5.6,4.1,9.7,7.4,12.5,10c2.7,2.6,4.9,5.4,6.3,8.4
	c1.5,3,2.2,6.7,2.2,11c0,7.6-2.2,13.7-6.6,18.3c-4.4,4.6-10,6.9-16.9,6.9C459.8,468.3,454.3,466.1,450,461.5z"/>
</svg>
